<svg xmlns="http://www.w3.org/2000/svg" xmlns:svg="http://www.w3.org/2000/svg" id="svg2" width="1000" height="1000" version="1.1"><defs id="defs4"><filter id="filter3837" color-interpolation-filters="sRGB"><feFlood id="feFlood3839" flood-color="#000" flood-opacity=".83" result="flood"/><feComposite id="feComposite3841" in="flood" in2="SourceGraphic" operator="in" result="composite1"/><feGaussianBlur id="feGaussianBlur3843" in="composite" result="blur" stdDeviation="9"/><feOffset id="feOffset3845" dx="0" dy="10" result="offset"/><feComposite id="feComposite3847" in="SourceGraphic" in2="offset" operator="over" result="composite2"/></filter></defs><metadata id="metadata7"/><g id="layer2" display="inline"><rect id="rect3767" width="505" height="1000" x="495" y="0" fill="#4f6099" fill-opacity="1" fill-rule="nonzero" stroke="none"/><rect id="rect3765" width="500" height="1000" x="0" y="0" fill="#7289da" fill-opacity="1" fill-rule="nonzero" stroke="none"/><g id="g3773" filter="url(#filter3837)"><path id="path3769" fill="#4f6099" fill-opacity="1" stroke="none" d="m 500,233.29422 5,23.73858 0,317.94552 -5,16.45025 -20,-18.57143 0,-90.35714 -91.42858,-53.92857 13.21429,49.28571 53.21429,23.21429 -1.07143,257.5 c -20.6611,-80.728 -46.93544,-156.11122 -93.57143,-220.71429 l 0,-193.44614 C 420.07711,321.65083 469.55508,285.80139 500,233.29422 z"/><path id="path3771" fill="#7289da" fill-opacity="1" stroke="none" d="m 500,233.29422 0,358.13435 20,-18.57143 L 520,482.5 611.42858,428.57143 598.21429,477.85714 545,501.07143 l 1.07143,257.5 c 20.6611,-80.728 46.93544,-156.11122 93.57143,-220.71429 l 0,-193.44614 C 579.92289,321.65083 530.44492,285.80139 500,233.29422 z"/></g></g></svg>